<svg width="43" height="43" viewBox="0 0 43 43" fill="none" xmlns="http://www.w3.org/2000/svg">
<path fill-rule="evenodd" clip-rule="evenodd" d="M29.2489 26.6942L38.8881 36.3334C39.2269 36.6724 39.4171 37.1322 39.417 37.6115C39.4168 38.0908 39.2262 38.5504 38.8872 38.8892C38.5482 39.228 38.0884 39.4183 37.6091 39.4181C37.1298 39.4179 36.6702 39.2274 36.3314 38.8883L26.6922 29.2491C23.8107 31.481 20.1872 32.5313 16.5588 32.1863C12.9304 31.8414 9.56968 30.1271 7.16033 27.3923C4.75099 24.6575 3.474 21.1075 3.58913 17.4645C3.70427 13.8216 5.20288 10.3594 7.78011 7.78213C10.3573 5.2049 13.8196 3.70628 17.4625 3.59114C21.1055 3.47601 24.6554 4.753 27.3903 7.16235C30.1251 9.57169 31.8394 12.9324 32.1843 16.5608C32.5293 20.1892 31.479 23.8127 29.2471 26.6942H29.2489ZM17.9166 28.6669C20.7677 28.6669 23.502 27.5343 25.518 25.5183C27.5341 23.5022 28.6666 20.7679 28.6666 17.9169C28.6666 15.0658 27.5341 12.3315 25.518 10.3155C23.502 8.29945 20.7677 7.16686 17.9166 7.16686C15.0656 7.16686 12.3313 8.29945 10.3152 10.3155C8.29922 12.3315 7.16664 15.0658 7.16664 17.9169C7.16664 20.7679 8.29922 23.5022 10.3152 25.5183C12.3313 27.5343 15.0656 28.6669 17.9166 28.6669Z" fill="#FCF6F5"/>
</svg>
